# xmcd
#
# Track frame offsets:
#	150
#	12426
#	37630
#	65367
#	89306
#	117360
#	141100
#	160109
#
# Disc length: 2351 seconds
#
# Revision: 1
# Processed by: cddbd v1.5.2PL0 Copyright (c) Steve Scherf et al.
# Submitted via: audiograbber 1.83.01
#
DISCID=5b092d08
DTITLE=Foghat - The Complete Bearsville Albums Collection [CD 11) - Girls To Ch
DTITLE=at and Boys To Bounce [remastered 2016]
DYEAR=1981
DGENRE=Rock
TTITLE0=Wide Boy
TTITLE1=Let Me Get Close To You
TTITLE2=Live Now - Pay Later
TTITLE3=Love Zone
TTITLE4=Delayed Reaction
TTITLE5=Second Childhood
TTITLE6=Weekend Driver
TTITLE7=Sing About Love
EXTD=
EXTT0=
EXTT1=
EXTT2=
EXTT3=
EXTT4=
EXTT5=
EXTT6=
EXTT7=
PLAYORDER=
